<svg width="244" height="244" viewBox="0 0 244 244" fill="none" xmlns="http://www.w3.org/2000/svg">
<path fill-rule="evenodd" clip-rule="evenodd" d="M185.9 224.556C184.414 225.486 182.913 226.381 181.399 227.241L9.61539 74.0544C10.2957 72.4475 11.0119 70.8526 11.764 69.2711L185.9 224.556ZM7.27741 80.0113C7.88308 78.3396 8.52639 76.6788 9.20728 75.0304L180.477 227.759C178.917 228.627 177.342 229.457 175.754 230.25L7.27741 80.0113ZM242.058 136.63C242.313 134.583 242.517 132.531 242.669 130.476L98.7465 2.1334C96.7228 2.51719 94.7065 2.95286 92.6998 3.44053L242.058 136.63ZM91.5245 3.73228C89.6057 4.21885 87.6961 4.75316 85.7974 5.33531L240.962 143.703C241.323 141.752 241.636 139.794 241.902 137.83L91.5245 3.73228ZM210.121 204.628C211.267 203.408 212.383 202.171 213.47 200.915L32.1166 39.1941C30.9817 40.4238 29.8767 41.6719 28.8015 42.9372L210.121 204.628ZM28.1569 43.7023C27.0851 44.9848 26.0437 46.2849 25.0327 47.6015L205.908 208.896C207.112 207.734 208.287 206.553 209.433 205.354L28.1569 43.7023ZM233.335 73.9258C234.741 77.2311 235.993 80.5843 237.091 83.9747L145.627 2.41124C149.125 3.11705 152.598 3.97752 156.033 4.99217L233.335 73.9258ZM134.732 0.721662C137.737 1.04966 140.731 1.48924 143.708 2.04027L237.679 85.838C238.566 88.7352 239.341 91.6578 240.006 94.5993L134.732 0.721662ZM232.92 170.033C232.226 171.628 231.497 173.211 230.732 174.781L56.1173 19.0694C57.5894 18.1273 59.0768 17.2203 60.5785 16.3484L232.92 170.033ZM50.9998 22.5314C52.3997 21.5315 53.8154 20.5652 55.246 19.6323L230.273 175.712C229.51 177.243 228.713 178.761 227.882 180.265L50.9998 22.5314ZM186.779 224C188.225 223.076 189.656 222.119 191.071 221.128L14.5727 63.7366C13.7523 65.255 12.9663 66.7877 12.2149 68.3334L186.779 224ZM242.995 122.727C242.973 124.891 242.893 127.054 242.756 129.213L99.9918 1.90403C102.125 1.52232 104.267 1.19822 106.414 0.931379L242.995 122.727ZM217.287 196.28C216.262 197.589 215.207 198.881 214.122 200.156L32.798 38.4619C33.9348 37.2501 35.1009 36.0566 36.2962 34.8822L217.287 196.28ZM232.375 71.7298C230.459 67.463 228.282 63.281 225.845 59.207L171.467 10.7163C167.169 8.78026 162.779 7.10533 158.321 5.69249L232.375 71.7298ZM233.336 169.064C234.03 167.429 234.687 165.782 235.307 164.123L66.1704 13.2959C64.5971 14.1015 63.0373 14.944 61.492 15.8232L233.336 169.064ZM196.002 217.487C194.654 218.536 193.29 219.552 191.909 220.536L15.0645 62.8353C15.8842 61.3485 16.7372 59.8758 17.6234 58.4181L196.002 217.487ZM243.001 121.393C243 119.101 242.934 116.808 242.804 114.517L114.601 0.193097C112.31 0.322004 110.022 0.515607 107.74 0.773908L243.001 121.393ZM217.901 195.488C218.925 194.157 219.918 192.809 220.88 191.445L40.6953 30.7659C40.237 31.1743 39.7809 31.5869 39.3271 32.0035C38.5445 32.722 37.7735 33.4485 37.0141 34.1825L217.901 195.488ZM210.998 39.3271C215.897 44.6633 220.23 50.3191 223.998 56.2206L174.629 12.1958C187.977 18.6791 200.353 27.7336 210.998 39.3271ZM237.42 157.968C236.879 159.694 236.299 161.41 235.679 163.114L67.1287 12.8105C68.7515 11.9977 70.3883 11.2237 72.0376 10.4886L237.42 157.968ZM196.802 216.86C198.12 215.817 199.421 214.743 200.706 213.637L20.911 53.305C19.96 54.7052 19.0413 56.1212 18.1548 57.5521L196.802 216.86ZM241.985 105.743C242.302 108.188 242.546 110.641 242.714 113.098L116.023 0.121442C118.489 0.0114568 120.957 -0.0238215 123.423 0.0156072L241.985 105.743ZM224.249 186.404C223.35 187.825 222.42 189.23 221.457 190.619L41.4499 30.099C42.723 28.983 44.0131 27.8983 45.3194 26.8448L224.249 186.404ZM237.744 156.917C238.285 155.137 238.784 153.347 239.241 151.547L78.2035 7.94249C76.4714 8.60228 74.7509 9.30345 73.0434 10.0459L237.744 156.917ZM203.674 210.998C202.945 211.668 202.209 212.327 201.468 212.976L21.4809 52.4734C22.4311 51.0993 23.4125 49.7411 24.4251 48.3995L205.183 209.589C204.685 210.062 204.182 210.532 203.674 210.998ZM241.777 104.217C241.397 101.555 240.928 98.9022 240.37 96.2637L133.036 0.548444C130.351 0.293317 127.659 0.127057 124.964 0.050031L241.777 104.217ZM224.787 185.545C225.686 184.098 226.551 182.636 227.383 181.16L50.1688 23.1301C48.8006 24.1249 47.4478 25.152 46.1116 26.2114L224.787 185.545ZM169.834 233.01C171.498 232.288 173.15 231.527 174.788 230.728L6.91439 81.0275C6.30924 82.7455 5.74367 84.4747 5.21772 86.2139L169.834 233.01ZM4.90272 87.2728C4.37775 89.0675 3.8948 90.8722 3.45394 92.6855L163.611 235.504C165.359 234.859 167.095 234.173 168.819 233.444L4.90272 87.2728ZM162.543 235.892L3.19071 93.7906C2.75335 95.6655 2.36083 97.5492 2.01324 99.4399L157.067 237.708C158.903 237.148 160.729 236.542 162.543 235.892ZM155.943 238.046C154.027 238.61 152.101 239.126 150.166 239.594L0.926566 106.51C1.17145 104.533 1.4648 102.56 1.80654 100.595L155.943 238.046ZM142.866 241.123C144.911 240.76 146.95 240.344 148.979 239.875L0.782676 107.722C0.547736 109.788 0.365607 111.859 0.236411 113.934L142.866 241.123ZM141.607 241.34C139.452 241.7 137.29 242.001 135.123 242.243L0.000189953 121.749C-0.00365526 119.567 0.0508796 117.387 0.163688 115.209L141.607 241.34ZM240.744 144.848C240.379 146.724 239.969 148.592 239.515 150.451L79.2607 7.54539C81.057 6.88035 82.8654 6.25938 84.6842 5.68248L240.744 144.848ZM0.0100166 123.097L133.78 242.386C131.467 242.619 129.149 242.786 126.829 242.887L0.29737 130.052C0.135444 127.736 0.0397102 125.417 0.0100166 123.097ZM117.875 242.947C120.378 243.022 122.884 243.02 125.388 242.941L0.406364 131.489C0.610069 133.98 0.890449 136.467 1.24764 138.945L117.875 242.947ZM116.309 242.89C113.564 242.773 110.823 242.563 108.091 242.26L3.03477 148.577C2.42467 145.896 1.90679 143.2 1.48093 140.492L116.309 242.89ZM97.1525 240.545C100.204 241.167 103.275 241.671 106.36 242.057L3.43342 150.272C4.16502 153.286 5.01385 156.279 5.98022 159.243L97.1525 240.545ZM95.1805 240.127C91.5561 239.326 87.9628 238.358 84.4128 237.224L10.742 171.528C9.2022 168.121 7.82873 164.659 6.62107 161.154L95.1805 240.127ZM68.0266 230.637C72.5879 232.87 77.2637 234.803 82.0236 236.433L11.8046 173.816C13.9732 178.359 16.442 182.799 19.2123 187.107L68.0266 230.637ZM32.0035 203.674C41.6156 214.143 52.6397 222.542 64.516 228.846L21.4133 190.41C24.5876 195.008 28.1171 199.442 32.0035 203.674Z" fill="url(#paint0_linear_25_113)" fill-opacity="0.5"/>
<defs>
<linearGradient id="paint0_linear_25_113" x1="121.165" y1="1.0983" x2="123.331" y2="243.531" gradientUnits="userSpaceOnUse">
<stop stop-color="#FC7D4D"/>
<stop offset="0.5625" stop-color="#438FFE"/>
<stop offset="1" stop-color="#3B3A3D"/>
</linearGradient>
</defs>
</svg>
